<?xml version="1.0" encoding="UTF-8" standalone="no"?>
<!DOCTYPE svg PUBLIC "-//W3C//DTD SVG 1.1//EN"
 "http://www.w3.org/Graphics/SVG/1.1/DTD/svg11.dtd">
<!-- Generated by graphviz version 2.47.0 (20210316.0004)
 -->
<!-- Title: dependencies Pages: 1 -->
<svg width="504pt" height="284pt"
 viewBox="0.00 0.00 504.00 284.00" xmlns="http://www.w3.org/2000/svg" xmlns:xlink="http://www.w3.org/1999/xlink">
<g id="graph0" class="graph" transform="scale(1 1) rotate(0) translate(4 280)">
<title>dependencies</title>
<polygon fill="white" stroke="transparent" points="-4,4 -4,-280 500,-280 500,4 -4,4"/>
<text text-anchor="start" x="227.01" y="-42.4" font-family="Times-12" font-weight="bold" font-size="14.00">Legend</text>
<polygon fill="#ffffb3" stroke="transparent" points="14,-10 14,-30 34,-30 34,-10 14,-10"/>
<text text-anchor="start" x="37.63" y="-15.4" font-family="Times-12" font-size="14.00"> &#160;Declarations</text>
<polygon fill="#8dd3c7" stroke="transparent" points="127,-10 127,-30 147,-30 147,-10 127,-10"/>
<text text-anchor="start" x="150.73" y="-15.4" font-family="Times-12" font-size="14.00"> &#160;Module</text>
<polygon fill="#80b1d3" stroke="transparent" points="213,-10 213,-30 233,-30 233,-10 213,-10"/>
<text text-anchor="start" x="236.78" y="-15.4" font-family="Times-12" font-size="14.00"> &#160;Bootstrap</text>
<polygon fill="#fdb462" stroke="transparent" points="310,-10 310,-30 330,-30 330,-10 310,-10"/>
<text text-anchor="start" x="333.67" y="-15.4" font-family="Times-12" font-size="14.00"> &#160;Providers</text>
<polygon fill="#fb8072" stroke="transparent" points="406,-10 406,-30 426,-30 426,-10 406,-10"/>
<text text-anchor="start" x="429.73" y="-15.4" font-family="Times-12" font-size="14.00"> &#160;Exports</text>
<g id="clust1" class="cluster">
<title>cluster_InventoryMovementsModule</title>
<polygon fill="none" stroke="black" stroke-dasharray="1,5" points="43,-70 43,-268 453,-268 453,-70 43,-70"/>
</g>
<g id="clust6" class="cluster">
<title>cluster_InventoryMovementsModule_providers</title>
<polygon fill="none" stroke="black" points="183,-78 183,-130 445,-130 445,-78 183,-78"/>
</g>
<g id="clust3" class="cluster">
<title>cluster_InventoryMovementsModule_imports</title>
<polygon fill="none" stroke="black" points="51,-78 51,-130 175,-130 175,-78 51,-78"/>
</g>
<g id="clust4" class="cluster">
<title>cluster_InventoryMovementsModule_exports</title>
<polygon fill="none" stroke="black" points="133,-208 133,-260 331,-260 331,-208 133,-208"/>
</g>
<!-- ProductsModule -->
<g id="node1" class="node">
<title>ProductsModule</title>
<polygon fill="#8dd3c7" stroke="black" points="167.04,-122 164.04,-126 143.04,-126 140.04,-122 58.96,-122 58.96,-86 167.04,-86 167.04,-122"/>
<text text-anchor="middle" x="113" y="-99.8" font-family="Times,serif" font-size="14.00">ProductsModule</text>
</g>
<!-- InventoryMovementsModule -->
<g id="node2" class="node">
<title>InventoryMovementsModule</title>
<polygon fill="#8dd3c7" stroke="black" points="322.08,-187 319.08,-191 298.08,-191 295.08,-187 141.92,-187 141.92,-151 322.08,-151 322.08,-187"/>
<text text-anchor="middle" x="232" y="-164.8" font-family="Times,serif" font-size="14.00">InventoryMovementsModule</text>
</g>
<!-- ProductsModule&#45;&gt;InventoryMovementsModule -->
<g id="edge1" class="edge">
<title>ProductsModule&#45;&gt;InventoryMovementsModule</title>
<path fill="none" stroke="black" d="M154.62,-122.11C154.62,-122.11 154.62,-140.99 154.62,-140.99"/>
<polygon fill="black" stroke="black" points="151.12,-140.99 154.62,-150.99 158.12,-140.99 151.12,-140.99"/>
</g>
<!-- InventoryMovementsService  -->
<g id="node3" class="node">
<title>InventoryMovementsService </title>
<polygon fill="#fb8072" stroke="black" points="323,-252 141,-252 141,-216 323,-216 323,-252"/>
<text text-anchor="middle" x="232" y="-229.8" font-family="Times,serif" font-size="14.00">InventoryMovementsService </text>
</g>
<!-- InventoryMovementsModule&#45;&gt;InventoryMovementsService  -->
<g id="edge2" class="edge">
<title>InventoryMovementsModule&#45;&gt;InventoryMovementsService </title>
<path fill="none" stroke="black" stroke-dasharray="5,2" d="M232,-187.11C232,-187.11 232,-205.99 232,-205.99"/>
<polygon fill="black" stroke="black" points="228.5,-205.99 232,-215.99 235.5,-205.99 228.5,-205.99"/>
</g>
<!-- InventoryMovementsService -->
<g id="node4" class="node">
<title>InventoryMovementsService</title>
<ellipse fill="#fdb462" stroke="black" cx="314" cy="-104" rx="123.26" ry="18"/>
<text text-anchor="middle" x="314" y="-99.8" font-family="Times,serif" font-size="14.00">InventoryMovementsService</text>
</g>
<!-- InventoryMovementsService&#45;&gt;InventoryMovementsModule -->
<g id="edge3" class="edge">
<title>InventoryMovementsService&#45;&gt;InventoryMovementsModule</title>
<path fill="none" stroke="black" d="M256.45,-120.07C256.45,-120.07 256.45,-140.82 256.45,-140.82"/>
<polygon fill="black" stroke="black" points="252.95,-140.82 256.45,-150.82 259.95,-140.82 252.95,-140.82"/>
</g>
</g>
</svg>
