<?xml version="1.0" encoding="UTF-8" standalone="no"?>
<!DOCTYPE svg PUBLIC "-//W3C//DTD SVG 1.1//EN"
 "http://www.w3.org/Graphics/SVG/1.1/DTD/svg11.dtd">
<!-- Generated by graphviz version 2.47.0 (20210316.0004)
 -->
<!-- Title: dependencies Pages: 1 -->
<svg width="3077pt" height="298pt"
 viewBox="0.00 0.00 3077.00 298.00" xmlns="http://www.w3.org/2000/svg" xmlns:xlink="http://www.w3.org/1999/xlink">
<g id="graph0" class="graph" transform="scale(1 1) rotate(0) translate(4 294)">
<title>dependencies</title>
<polygon fill="white" stroke="transparent" points="-4,4 -4,-294 3073,-294 3073,4 -4,4"/>
<text text-anchor="start" x="1513.51" y="-42.4" font-family="Times-12" font-weight="bold" font-size="14.00">Legend</text>
<polygon fill="#ffffb3" stroke="transparent" points="1300.5,-10 1300.5,-30 1320.5,-30 1320.5,-10 1300.5,-10"/>
<text text-anchor="start" x="1324.13" y="-15.4" font-family="Times-12" font-size="14.00"> &#160;Declarations</text>
<polygon fill="#8dd3c7" stroke="transparent" points="1413.5,-10 1413.5,-30 1433.5,-30 1433.5,-10 1413.5,-10"/>
<text text-anchor="start" x="1437.23" y="-15.4" font-family="Times-12" font-size="14.00"> &#160;Module</text>
<polygon fill="#80b1d3" stroke="transparent" points="1499.5,-10 1499.5,-30 1519.5,-30 1519.5,-10 1499.5,-10"/>
<text text-anchor="start" x="1523.28" y="-15.4" font-family="Times-12" font-size="14.00"> &#160;Bootstrap</text>
<polygon fill="#fdb462" stroke="transparent" points="1596.5,-10 1596.5,-30 1616.5,-30 1616.5,-10 1596.5,-10"/>
<text text-anchor="start" x="1620.17" y="-15.4" font-family="Times-12" font-size="14.00"> &#160;Providers</text>
<polygon fill="#fb8072" stroke="transparent" points="1692.5,-10 1692.5,-30 1712.5,-30 1712.5,-10 1692.5,-10"/>
<text text-anchor="start" x="1716.23" y="-15.4" font-family="Times-12" font-size="14.00"> &#160;Exports</text>
<g id="clust1" class="cluster">
<title>cluster_AppModule</title>
<polygon fill="none" stroke="black" stroke-dasharray="1,5" points="412,-70 412,-274 800,-274 800,-70 412,-70"/>
</g>
<g id="clust3" class="cluster">
<title>cluster_AppModule_imports</title>
<polygon fill="none" stroke="black" points="558,-78 558,-206 792,-206 792,-78 558,-78"/>
</g>
<g id="clust6" class="cluster">
<title>cluster_AppModule_providers</title>
<polygon fill="none" stroke="black" points="420,-154 420,-206 550,-206 550,-154 420,-154"/>
</g>
<g id="clust7" class="cluster">
<title>cluster_AuthModule</title>
<polygon fill="none" stroke="black" stroke-dasharray="1,5" points="8,-70 8,-138 404,-138 404,-70 8,-70"/>
</g>
<g id="clust10" class="cluster">
<title>cluster_AuthModule_exports</title>
<polygon fill="none" stroke="black" points="290,-78 290,-130 396,-130 396,-78 290,-78"/>
</g>
<g id="clust12" class="cluster">
<title>cluster_AuthModule_providers</title>
<polygon fill="none" stroke="black" points="16,-78 16,-130 282,-130 282,-78 16,-78"/>
</g>
<g id="clust13" class="cluster">
<title>cluster_CategoriesModule</title>
<polygon fill="none" stroke="black" stroke-dasharray="1,5" points="1698,-70 1698,-282 1892,-282 1892,-70 1698,-70"/>
</g>
<g id="clust16" class="cluster">
<title>cluster_CategoriesModule_exports</title>
<polygon fill="none" stroke="black" points="1726,-222 1726,-274 1864,-274 1864,-222 1726,-222"/>
</g>
<g id="clust18" class="cluster">
<title>cluster_CategoriesModule_providers</title>
<polygon fill="none" stroke="black" points="1706,-78 1706,-130 1884,-130 1884,-78 1706,-78"/>
</g>
<g id="clust19" class="cluster">
<title>cluster_InventoryMovementsModule</title>
<polygon fill="none" stroke="black" stroke-dasharray="1,5" points="1412,-70 1412,-282 1690,-282 1690,-70 1412,-70"/>
</g>
<g id="clust22" class="cluster">
<title>cluster_InventoryMovementsModule_exports</title>
<polygon fill="none" stroke="black" points="1436,-222 1436,-274 1634,-274 1634,-222 1436,-222"/>
</g>
<g id="clust24" class="cluster">
<title>cluster_InventoryMovementsModule_providers</title>
<polygon fill="none" stroke="black" points="1420,-78 1420,-130 1682,-130 1682,-78 1420,-78"/>
</g>
<g id="clust25" class="cluster">
<title>cluster_PetsModule</title>
<polygon fill="none" stroke="black" stroke-dasharray="1,5" points="1900,-70 1900,-282 2044,-282 2044,-70 1900,-70"/>
</g>
<g id="clust28" class="cluster">
<title>cluster_PetsModule_exports</title>
<polygon fill="none" stroke="black" points="1922,-222 1922,-274 2022,-274 2022,-222 1922,-222"/>
</g>
<g id="clust30" class="cluster">
<title>cluster_PetsModule_providers</title>
<polygon fill="none" stroke="black" points="1908,-78 1908,-130 2036,-130 2036,-78 1908,-78"/>
</g>
<g id="clust31" class="cluster">
<title>cluster_ProductsModule</title>
<polygon fill="none" stroke="black" stroke-dasharray="1,5" points="808,-146 808,-214 1122,-214 1122,-146 808,-146"/>
</g>
<g id="clust34" class="cluster">
<title>cluster_ProductsModule_exports</title>
<polygon fill="none" stroke="black" points="988,-154 988,-206 1114,-206 1114,-154 988,-154"/>
</g>
<g id="clust36" class="cluster">
<title>cluster_ProductsModule_providers</title>
<polygon fill="none" stroke="black" points="816,-154 816,-206 980,-206 980,-154 816,-154"/>
</g>
<g id="clust37" class="cluster">
<title>cluster_SuppliersModule</title>
<polygon fill="none" stroke="black" stroke-dasharray="1,5" points="2052,-70 2052,-282 2236,-282 2236,-70 2052,-70"/>
</g>
<g id="clust40" class="cluster">
<title>cluster_SuppliersModule_exports</title>
<polygon fill="none" stroke="black" points="2079,-222 2079,-274 2209,-274 2209,-222 2079,-222"/>
</g>
<g id="clust42" class="cluster">
<title>cluster_SuppliersModule_providers</title>
<polygon fill="none" stroke="black" points="2060,-78 2060,-130 2228,-130 2228,-78 2060,-78"/>
</g>
<g id="clust43" class="cluster">
<title>cluster_TemplatePlaygroundModule</title>
<polygon fill="none" stroke="black" stroke-dasharray="1,5" points="2244,-70 2244,-282 3061,-282 3061,-70 2244,-70"/>
</g>
<g id="clust44" class="cluster">
<title>cluster_TemplatePlaygroundModule_declarations</title>
<polygon fill="none" stroke="black" points="2839,-78 2839,-130 3053,-130 3053,-78 2839,-78"/>
</g>
<g id="clust48" class="cluster">
<title>cluster_TemplatePlaygroundModule_bootstrap</title>
<polygon fill="none" stroke="black" points="2514,-222 2514,-274 2732,-274 2732,-222 2514,-222"/>
</g>
<g id="clust49" class="cluster">
<title>cluster_TemplatePlaygroundModule_providers</title>
<polygon fill="none" stroke="black" points="2252,-78 2252,-130 2831,-130 2831,-78 2252,-78"/>
</g>
<g id="clust50" class="cluster">
<title>cluster_UsersModule</title>
<polygon fill="none" stroke="black" stroke-dasharray="1,5" points="1130,-146 1130,-214 1404,-214 1404,-146 1130,-146"/>
</g>
<g id="clust53" class="cluster">
<title>cluster_UsersModule_exports</title>
<polygon fill="none" stroke="black" points="1286,-154 1286,-206 1396,-206 1396,-154 1286,-154"/>
</g>
<g id="clust55" class="cluster">
<title>cluster_UsersModule_providers</title>
<polygon fill="none" stroke="black" points="1138,-154 1138,-206 1278,-206 1278,-154 1138,-154"/>
</g>
<!-- AuthModule -->
<g id="node1" class="node">
<title>AuthModule</title>
<polygon fill="#8dd3c7" stroke="black" points="653.55,-198 650.55,-202 629.55,-202 626.55,-198 566.45,-198 566.45,-162 653.55,-162 653.55,-198"/>
<text text-anchor="middle" x="610" y="-175.8" font-family="Times,serif" font-size="14.00">AuthModule</text>
</g>
<!-- AppModule -->
<g id="node4" class="node">
<title>AppModule</title>
<polygon fill="#8dd3c7" stroke="black" points="682.66,-266 679.66,-270 658.66,-270 655.66,-266 599.34,-266 599.34,-230 682.66,-230 682.66,-266"/>
<text text-anchor="middle" x="641" y="-243.8" font-family="Times,serif" font-size="14.00">AppModule</text>
</g>
<!-- AuthModule&#45;&gt;AppModule -->
<g id="edge1" class="edge">
<title>AuthModule&#45;&gt;AppModule</title>
<path fill="none" stroke="black" d="M626.47,-198.22C626.47,-198.22 626.47,-219.73 626.47,-219.73"/>
<polygon fill="black" stroke="black" points="622.97,-219.73 626.47,-229.73 629.97,-219.73 622.97,-219.73"/>
</g>
<!-- AuthService  -->
<g id="node6" class="node">
<title>AuthService </title>
<polygon fill="#fb8072" stroke="black" points="387.98,-122 298.02,-122 298.02,-86 387.98,-86 387.98,-122"/>
<text text-anchor="middle" x="343" y="-99.8" font-family="Times,serif" font-size="14.00">AuthService </text>
</g>
<!-- AuthModule&#45;&gt;AuthService  -->
<g id="edge6" class="edge">
<title>AuthModule&#45;&gt;AuthService </title>
<path fill="none" stroke="black" stroke-dasharray="5,2" d="M566.37,-180C559.13,-180 553.92,-180 553.92,-180 553.92,-180 553.92,-104 553.92,-104 553.92,-104 397.99,-104 397.99,-104"/>
<polygon fill="black" stroke="black" points="397.99,-100.5 387.99,-104 397.99,-107.5 397.99,-100.5"/>
</g>
<!-- ProductsModule -->
<g id="node2" class="node">
<title>ProductsModule</title>
<polygon fill="#8dd3c7" stroke="black" points="784.04,-122 781.04,-126 760.04,-126 757.04,-122 675.96,-122 675.96,-86 784.04,-86 784.04,-122"/>
<text text-anchor="middle" x="730" y="-99.8" font-family="Times,serif" font-size="14.00">ProductsModule</text>
</g>
<!-- ProductsModule&#45;&gt;AppModule -->
<g id="edge2" class="edge">
<title>ProductsModule&#45;&gt;AppModule</title>
<path fill="none" stroke="black" d="M679.28,-122.24C679.28,-122.24 679.28,-219.91 679.28,-219.91"/>
<polygon fill="black" stroke="black" points="675.78,-219.91 679.28,-229.91 682.78,-219.91 675.78,-219.91"/>
</g>
<!-- InventoryMovementsModule -->
<g id="node12" class="node">
<title>InventoryMovementsModule</title>
<polygon fill="#8dd3c7" stroke="black" points="1625.08,-198 1622.08,-202 1601.08,-202 1598.08,-198 1444.92,-198 1444.92,-162 1625.08,-162 1625.08,-198"/>
<text text-anchor="middle" x="1535" y="-175.8" font-family="Times,serif" font-size="14.00">InventoryMovementsModule</text>
</g>
<!-- ProductsModule&#45;&gt;InventoryMovementsModule -->
<g id="edge11" class="edge">
<title>ProductsModule&#45;&gt;InventoryMovementsModule</title>
<path fill="none" stroke="black" d="M784.32,-98C945.15,-98 1407.77,-98 1407.77,-98 1407.77,-98 1407.77,-180 1407.77,-180 1407.77,-180 1434.91,-180 1434.91,-180"/>
<polygon fill="black" stroke="black" points="1434.91,-183.5 1444.91,-180 1434.91,-176.5 1434.91,-183.5"/>
</g>
<!-- ProductsService  -->
<g id="node18" class="node">
<title>ProductsService </title>
<polygon fill="#fb8072" stroke="black" points="1106.47,-198 995.53,-198 995.53,-162 1106.47,-162 1106.47,-198"/>
<text text-anchor="middle" x="1051" y="-175.8" font-family="Times,serif" font-size="14.00">ProductsService </text>
</g>
<!-- ProductsModule&#45;&gt;ProductsService  -->
<g id="edge16" class="edge">
<title>ProductsModule&#45;&gt;ProductsService </title>
<path fill="none" stroke="black" stroke-dasharray="5,2" d="M784.09,-110C875.57,-110 1051,-110 1051,-110 1051,-110 1051,-151.97 1051,-151.97"/>
<polygon fill="black" stroke="black" points="1047.5,-151.97 1051,-161.97 1054.5,-151.97 1047.5,-151.97"/>
</g>
<!-- UsersModule -->
<g id="node3" class="node">
<title>UsersModule</title>
<polygon fill="#8dd3c7" stroke="black" points="657.92,-122 654.92,-126 633.92,-126 630.92,-122 566.08,-122 566.08,-86 657.92,-86 657.92,-122"/>
<text text-anchor="middle" x="612" y="-99.8" font-family="Times,serif" font-size="14.00">UsersModule</text>
</g>
<!-- UsersModule&#45;&gt;AuthModule -->
<g id="edge5" class="edge">
<title>UsersModule&#45;&gt;AuthModule</title>
<path fill="none" stroke="black" d="M610.03,-122.01C610.03,-122.01 610.03,-151.85 610.03,-151.85"/>
<polygon fill="black" stroke="black" points="606.53,-151.85 610.03,-161.85 613.53,-151.85 606.53,-151.85"/>
</g>
<!-- UsersModule&#45;&gt;AppModule -->
<g id="edge3" class="edge">
<title>UsersModule&#45;&gt;AppModule</title>
<path fill="none" stroke="black" d="M658.17,-104C663.3,-104 666.72,-104 666.72,-104 666.72,-104 666.72,-219.76 666.72,-219.76"/>
<polygon fill="black" stroke="black" points="663.22,-219.76 666.72,-229.76 670.22,-219.76 663.22,-219.76"/>
</g>
<!-- UsersService  -->
<g id="node29" class="node">
<title>UsersService </title>
<polygon fill="#fb8072" stroke="black" points="1387.85,-198 1294.15,-198 1294.15,-162 1387.85,-162 1387.85,-198"/>
<text text-anchor="middle" x="1341" y="-175.8" font-family="Times,serif" font-size="14.00">UsersService </text>
</g>
<!-- UsersModule&#45;&gt;UsersService  -->
<g id="edge25" class="edge">
<title>UsersModule&#45;&gt;UsersService </title>
<path fill="none" stroke="black" stroke-dasharray="5,2" d="M624.61,-122.06C624.61,-126.49 624.61,-130 624.61,-130 624.61,-130 1341,-130 1341,-130 1341,-130 1341,-151.95 1341,-151.95"/>
<polygon fill="black" stroke="black" points="1337.5,-151.95 1341,-161.95 1344.5,-151.95 1337.5,-151.95"/>
</g>
<!-- AppService -->
<g id="node5" class="node">
<title>AppService</title>
<ellipse fill="#fdb462" stroke="black" cx="485" cy="-180" rx="56.74" ry="18"/>
<text text-anchor="middle" x="485" y="-175.8" font-family="Times,serif" font-size="14.00">AppService</text>
</g>
<!-- AppService&#45;&gt;AppModule -->
<g id="edge4" class="edge">
<title>AppService&#45;&gt;AppModule</title>
<path fill="none" stroke="black" d="M485,-198.22C485,-218.37 485,-248 485,-248 485,-248 589.19,-248 589.19,-248"/>
<polygon fill="black" stroke="black" points="589.19,-251.5 599.19,-248 589.19,-244.5 589.19,-251.5"/>
</g>
<!-- AuthService -->
<g id="node7" class="node">
<title>AuthService</title>
<ellipse fill="#fdb462" stroke="black" cx="215" cy="-104" rx="59.11" ry="18"/>
<text text-anchor="middle" x="215" y="-99.8" font-family="Times,serif" font-size="14.00">AuthService</text>
</g>
<!-- AuthService&#45;&gt;AuthModule -->
<g id="edge7" class="edge">
<title>AuthService&#45;&gt;AuthModule</title>
<path fill="none" stroke="black" d="M215,-122.06C215,-133.44 215,-146 215,-146 215,-146 595.45,-146 595.45,-146 595.45,-146 595.45,-151.81 595.45,-151.81"/>
<polygon fill="black" stroke="black" points="591.95,-151.81 595.45,-161.81 598.95,-151.81 591.95,-151.81"/>
</g>
<!-- JwtStrategy -->
<g id="node8" class="node">
<title>JwtStrategy</title>
<ellipse fill="#fdb462" stroke="black" cx="81" cy="-104" rx="56.76" ry="18"/>
<text text-anchor="middle" x="81" y="-99.8" font-family="Times,serif" font-size="14.00">JwtStrategy</text>
</g>
<!-- JwtStrategy&#45;&gt;AuthModule -->
<g id="edge8" class="edge">
<title>JwtStrategy&#45;&gt;AuthModule</title>
<path fill="none" stroke="black" d="M81,-122.05C81,-136.37 81,-154 81,-154 81,-154 580.87,-154 580.87,-154 580.87,-154 580.87,-154.79 580.87,-154.79"/>
<polygon fill="black" stroke="black" points="577.37,-151.94 580.87,-161.94 584.37,-151.94 577.37,-151.94"/>
</g>
<!-- CategoriesService  -->
<g id="node9" class="node">
<title>CategoriesService </title>
<polygon fill="#fb8072" stroke="black" points="1855.84,-266 1734.16,-266 1734.16,-230 1855.84,-230 1855.84,-266"/>
<text text-anchor="middle" x="1795" y="-243.8" font-family="Times,serif" font-size="14.00">CategoriesService </text>
</g>
<!-- CategoriesModule -->
<g id="node10" class="node">
<title>CategoriesModule</title>
<polygon fill="#8dd3c7" stroke="black" points="1854.92,-198 1851.92,-202 1830.92,-202 1827.92,-198 1735.08,-198 1735.08,-162 1854.92,-162 1854.92,-198"/>
<text text-anchor="middle" x="1795" y="-175.8" font-family="Times,serif" font-size="14.00">CategoriesModule</text>
</g>
<!-- CategoriesModule&#45;&gt;CategoriesService  -->
<g id="edge9" class="edge">
<title>CategoriesModule&#45;&gt;CategoriesService </title>
<path fill="none" stroke="black" stroke-dasharray="5,2" d="M1795,-198.22C1795,-198.22 1795,-219.73 1795,-219.73"/>
<polygon fill="black" stroke="black" points="1791.5,-219.73 1795,-229.73 1798.5,-219.73 1791.5,-219.73"/>
</g>
<!-- CategoriesService -->
<g id="node11" class="node">
<title>CategoriesService</title>
<ellipse fill="#fdb462" stroke="black" cx="1795" cy="-104" rx="81.07" ry="18"/>
<text text-anchor="middle" x="1795" y="-99.8" font-family="Times,serif" font-size="14.00">CategoriesService</text>
</g>
<!-- CategoriesService&#45;&gt;CategoriesModule -->
<g id="edge10" class="edge">
<title>CategoriesService&#45;&gt;CategoriesModule</title>
<path fill="none" stroke="black" d="M1795,-122.01C1795,-122.01 1795,-151.85 1795,-151.85"/>
<polygon fill="black" stroke="black" points="1791.5,-151.85 1795,-161.85 1798.5,-151.85 1791.5,-151.85"/>
</g>
<!-- InventoryMovementsService  -->
<g id="node13" class="node">
<title>InventoryMovementsService </title>
<polygon fill="#fb8072" stroke="black" points="1626,-266 1444,-266 1444,-230 1626,-230 1626,-266"/>
<text text-anchor="middle" x="1535" y="-243.8" font-family="Times,serif" font-size="14.00">InventoryMovementsService </text>
</g>
<!-- InventoryMovementsModule&#45;&gt;InventoryMovementsService  -->
<g id="edge12" class="edge">
<title>InventoryMovementsModule&#45;&gt;InventoryMovementsService </title>
<path fill="none" stroke="black" stroke-dasharray="5,2" d="M1535,-198.22C1535,-198.22 1535,-219.73 1535,-219.73"/>
<polygon fill="black" stroke="black" points="1531.5,-219.73 1535,-229.73 1538.5,-219.73 1531.5,-219.73"/>
</g>
<!-- InventoryMovementsService -->
<g id="node14" class="node">
<title>InventoryMovementsService</title>
<ellipse fill="#fdb462" stroke="black" cx="1551" cy="-104" rx="123.26" ry="18"/>
<text text-anchor="middle" x="1551" y="-99.8" font-family="Times,serif" font-size="14.00">InventoryMovementsService</text>
</g>
<!-- InventoryMovementsService&#45;&gt;InventoryMovementsModule -->
<g id="edge13" class="edge">
<title>InventoryMovementsService&#45;&gt;InventoryMovementsModule</title>
<path fill="none" stroke="black" d="M1535,-122.01C1535,-122.01 1535,-151.85 1535,-151.85"/>
<polygon fill="black" stroke="black" points="1531.5,-151.85 1535,-161.85 1538.5,-151.85 1531.5,-151.85"/>
</g>
<!-- PetsService  -->
<g id="node15" class="node">
<title>PetsService </title>
<polygon fill="#fb8072" stroke="black" points="2014.31,-266 1929.69,-266 1929.69,-230 2014.31,-230 2014.31,-266"/>
<text text-anchor="middle" x="1972" y="-243.8" font-family="Times,serif" font-size="14.00">PetsService </text>
</g>
<!-- PetsModule -->
<g id="node16" class="node">
<title>PetsModule</title>
<polygon fill="#8dd3c7" stroke="black" points="2013.38,-198 2010.38,-202 1989.38,-202 1986.38,-198 1930.62,-198 1930.62,-162 2013.38,-162 2013.38,-198"/>
<text text-anchor="middle" x="1972" y="-175.8" font-family="Times,serif" font-size="14.00">PetsModule</text>
</g>
<!-- PetsModule&#45;&gt;PetsService  -->
<g id="edge14" class="edge">
<title>PetsModule&#45;&gt;PetsService </title>
<path fill="none" stroke="black" stroke-dasharray="5,2" d="M1972,-198.22C1972,-198.22 1972,-219.73 1972,-219.73"/>
<polygon fill="black" stroke="black" points="1968.5,-219.73 1972,-229.73 1975.5,-219.73 1968.5,-219.73"/>
</g>
<!-- PetsService -->
<g id="node17" class="node">
<title>PetsService</title>
<ellipse fill="#fdb462" stroke="black" cx="1972" cy="-104" rx="56.17" ry="18"/>
<text text-anchor="middle" x="1972" y="-99.8" font-family="Times,serif" font-size="14.00">PetsService</text>
</g>
<!-- PetsService&#45;&gt;PetsModule -->
<g id="edge15" class="edge">
<title>PetsService&#45;&gt;PetsModule</title>
<path fill="none" stroke="black" d="M1972,-122.01C1972,-122.01 1972,-151.85 1972,-151.85"/>
<polygon fill="black" stroke="black" points="1968.5,-151.85 1972,-161.85 1975.5,-151.85 1968.5,-151.85"/>
</g>
<!-- ProductsService -->
<g id="node19" class="node">
<title>ProductsService</title>
<ellipse fill="#fdb462" stroke="black" cx="898" cy="-180" rx="73.57" ry="18"/>
<text text-anchor="middle" x="898" y="-175.8" font-family="Times,serif" font-size="14.00">ProductsService</text>
</g>
<!-- ProductsService&#45;&gt;ProductsModule -->
<g id="edge17" class="edge">
<title>ProductsService&#45;&gt;ProductsModule</title>
<path fill="none" stroke="black" d="M823.95,-180C780.3,-180 733.55,-180 733.55,-180 733.55,-180 733.55,-132.01 733.55,-132.01"/>
<polygon fill="black" stroke="black" points="737.05,-132.01 733.55,-122.01 730.05,-132.01 737.05,-132.01"/>
</g>
<!-- SuppliersService  -->
<g id="node20" class="node">
<title>SuppliersService </title>
<polygon fill="#fb8072" stroke="black" points="2201.36,-266 2086.64,-266 2086.64,-230 2201.36,-230 2201.36,-266"/>
<text text-anchor="middle" x="2144" y="-243.8" font-family="Times,serif" font-size="14.00">SuppliersService </text>
</g>
<!-- SuppliersModule -->
<g id="node21" class="node">
<title>SuppliersModule</title>
<polygon fill="#8dd3c7" stroke="black" points="2200.43,-198 2197.43,-202 2176.43,-202 2173.43,-198 2087.57,-198 2087.57,-162 2200.43,-162 2200.43,-198"/>
<text text-anchor="middle" x="2144" y="-175.8" font-family="Times,serif" font-size="14.00">SuppliersModule</text>
</g>
<!-- SuppliersModule&#45;&gt;SuppliersService  -->
<g id="edge18" class="edge">
<title>SuppliersModule&#45;&gt;SuppliersService </title>
<path fill="none" stroke="black" stroke-dasharray="5,2" d="M2144,-198.22C2144,-198.22 2144,-219.73 2144,-219.73"/>
<polygon fill="black" stroke="black" points="2140.5,-219.73 2144,-229.73 2147.5,-219.73 2140.5,-219.73"/>
</g>
<!-- SuppliersService -->
<g id="node22" class="node">
<title>SuppliersService</title>
<ellipse fill="#fdb462" stroke="black" cx="2144" cy="-104" rx="76.44" ry="18"/>
<text text-anchor="middle" x="2144" y="-99.8" font-family="Times,serif" font-size="14.00">SuppliersService</text>
</g>
<!-- SuppliersService&#45;&gt;SuppliersModule -->
<g id="edge19" class="edge">
<title>SuppliersService&#45;&gt;SuppliersModule</title>
<path fill="none" stroke="black" d="M2144,-122.01C2144,-122.01 2144,-151.85 2144,-151.85"/>
<polygon fill="black" stroke="black" points="2140.5,-151.85 2144,-161.85 2147.5,-151.85 2140.5,-151.85"/>
</g>
<!-- TemplatePlaygroundComponent -->
<g id="node23" class="node">
<title>TemplatePlaygroundComponent</title>
<polygon fill="#ffffb3" stroke="black" points="3045.25,-122 2846.75,-122 2846.75,-86 3045.25,-86 3045.25,-122"/>
<text text-anchor="middle" x="2946" y="-99.8" font-family="Times,serif" font-size="14.00">TemplatePlaygroundComponent</text>
</g>
<!-- TemplatePlaygroundModule -->
<g id="node24" class="node">
<title>TemplatePlaygroundModule</title>
<polygon fill="#8dd3c7" stroke="black" points="2711.47,-198 2708.47,-202 2687.47,-202 2684.47,-198 2534.53,-198 2534.53,-162 2711.47,-162 2711.47,-198"/>
<text text-anchor="middle" x="2623" y="-175.8" font-family="Times,serif" font-size="14.00">TemplatePlaygroundModule</text>
</g>
<!-- TemplatePlaygroundComponent&#45;&gt;TemplatePlaygroundModule -->
<g id="edge20" class="edge">
<title>TemplatePlaygroundComponent&#45;&gt;TemplatePlaygroundModule</title>
<path fill="none" stroke="black" d="M2946,-122.01C2946,-144.49 2946,-180 2946,-180 2946,-180 2721.69,-180 2721.69,-180"/>
<polygon fill="black" stroke="black" points="2721.69,-176.5 2711.69,-180 2721.69,-183.5 2721.69,-176.5"/>
</g>
<!-- TemplatePlaygroundComponent  -->
<g id="node25" class="node">
<title>TemplatePlaygroundComponent </title>
<polygon fill="#80b1d3" stroke="black" points="2724.25,-266 2521.75,-266 2521.75,-230 2724.25,-230 2724.25,-266"/>
<text text-anchor="middle" x="2623" y="-243.8" font-family="Times,serif" font-size="14.00">TemplatePlaygroundComponent </text>
</g>
<!-- TemplatePlaygroundModule&#45;&gt;TemplatePlaygroundComponent  -->
<g id="edge21" class="edge">
<title>TemplatePlaygroundModule&#45;&gt;TemplatePlaygroundComponent </title>
<path fill="none" stroke="black" stroke-dasharray="1,5" d="M2623,-198.22C2623,-198.22 2623,-219.73 2623,-219.73"/>
<polygon fill="black" stroke="black" points="2619.5,-219.73 2623,-229.73 2626.5,-219.73 2619.5,-219.73"/>
</g>
<!-- HbsRenderService -->
<g id="node26" class="node">
<title>HbsRenderService</title>
<ellipse fill="#fdb462" stroke="black" cx="2343" cy="-104" rx="83.37" ry="18"/>
<text text-anchor="middle" x="2343" y="-99.8" font-family="Times,serif" font-size="14.00">HbsRenderService</text>
</g>
<!-- HbsRenderService&#45;&gt;TemplatePlaygroundModule -->
<g id="edge22" class="edge">
<title>HbsRenderService&#45;&gt;TemplatePlaygroundModule</title>
<path fill="none" stroke="black" d="M2343,-122.01C2343,-144.49 2343,-180 2343,-180 2343,-180 2524.41,-180 2524.41,-180"/>
<polygon fill="black" stroke="black" points="2524.41,-183.5 2534.41,-180 2524.41,-176.5 2524.41,-183.5"/>
</g>
<!-- TemplateEditorService -->
<g id="node27" class="node">
<title>TemplateEditorService</title>
<ellipse fill="#fdb462" stroke="black" cx="2722" cy="-104" rx="100.7" ry="18"/>
<text text-anchor="middle" x="2722" y="-99.8" font-family="Times,serif" font-size="14.00">TemplateEditorService</text>
</g>
<!-- TemplateEditorService&#45;&gt;TemplatePlaygroundModule -->
<g id="edge23" class="edge">
<title>TemplateEditorService&#45;&gt;TemplatePlaygroundModule</title>
<path fill="none" stroke="black" d="M2666.44,-119.02C2666.44,-119.02 2666.44,-151.8 2666.44,-151.8"/>
<polygon fill="black" stroke="black" points="2662.94,-151.8 2666.44,-161.8 2669.94,-151.8 2662.94,-151.8"/>
</g>
<!-- ZipExportService -->
<g id="node28" class="node">
<title>ZipExportService</title>
<ellipse fill="#fdb462" stroke="black" cx="2524" cy="-104" rx="79.87" ry="18"/>
<text text-anchor="middle" x="2524" y="-99.8" font-family="Times,serif" font-size="14.00">ZipExportService</text>
</g>
<!-- ZipExportService&#45;&gt;TemplatePlaygroundModule -->
<g id="edge24" class="edge">
<title>ZipExportService&#45;&gt;TemplatePlaygroundModule</title>
<path fill="none" stroke="black" d="M2569.1,-119.02C2569.1,-119.02 2569.1,-151.8 2569.1,-151.8"/>
<polygon fill="black" stroke="black" points="2565.6,-151.8 2569.1,-161.8 2572.6,-151.8 2565.6,-151.8"/>
</g>
<!-- UsersService -->
<g id="node30" class="node">
<title>UsersService</title>
<ellipse fill="#fdb462" stroke="black" cx="1208" cy="-180" rx="61.95" ry="18"/>
<text text-anchor="middle" x="1208" y="-175.8" font-family="Times,serif" font-size="14.00">UsersService</text>
</g>
<!-- UsersService&#45;&gt;UsersModule -->
<g id="edge26" class="edge">
<title>UsersService&#45;&gt;UsersModule</title>
<path fill="none" stroke="black" d="M1208,-161.94C1208,-150.56 1208,-138 1208,-138 1208,-138 639.19,-138 639.19,-138 639.19,-138 639.19,-132.19 639.19,-132.19"/>
<polygon fill="black" stroke="black" points="642.69,-132.19 639.19,-122.19 635.69,-132.19 642.69,-132.19"/>
</g>
</g>
</svg>
